<mxfile host="65bd71144e" compressed="false">
    <diagram id="86R6ZRfhnQo9sD8B5-7s" name="Page-1">
        <mxGraphModel dx="2526" dy="784" grid="1" gridSize="10" guides="1" tooltips="1" connect="1" arrows="1" fold="1" page="1" pageScale="1" pageWidth="827" pageHeight="1169" background="#161923" math="0" shadow="0">
            <root>
                <mxCell id="0"/>
                <mxCell id="1" parent="0"/>
                <mxCell id="34" value="" style="rounded=0;whiteSpace=wrap;html=1;labelBackgroundColor=none;fontSize=14;fontColor=#BCBDD0;strokeColor=#bcbdd0;strokeWidth=2;fillColor=none;dashed=1;" parent="1" vertex="1">
                    <mxGeometry x="370" y="568.74" width="440" height="381.26" as="geometry"/>
                </mxCell>
                <mxCell id="Envj31jSL4E8aKWLNrxv-4" value="" style="endArrow=classic;html=1;rounded=0;fontSize=14;fontColor=#BCBDD0;entryX=0;entryY=0.25;entryDx=0;entryDy=0;strokeColor=#bcbdd0;strokeWidth=3;exitX=1;exitY=0.5;exitDx=0;exitDy=0;" parent="1" source="Envj31jSL4E8aKWLNrxv-8" target="10" edge="1">
                    <mxGeometry width="50" height="50" relative="1" as="geometry">
                        <mxPoint x="310" y="818.74" as="sourcePoint"/>
                        <mxPoint x="390" y="818.74" as="targetPoint"/>
                    </mxGeometry>
                </mxCell>
                <mxCell id="Envj31jSL4E8aKWLNrxv-5" value="" style="endArrow=classic;html=1;rounded=0;fontSize=14;fontColor=#BCBDD0;entryX=0;entryY=0.75;entryDx=0;entryDy=0;strokeColor=#bcbdd0;strokeWidth=3;exitX=1;exitY=0.5;exitDx=0;exitDy=0;" parent="1" source="Envj31jSL4E8aKWLNrxv-9" target="10" edge="1">
                    <mxGeometry width="50" height="50" relative="1" as="geometry">
                        <mxPoint x="310" y="858.74" as="sourcePoint"/>
                        <mxPoint x="390" y="858.74" as="targetPoint"/>
                    </mxGeometry>
                </mxCell>
                <mxCell id="Envj31jSL4E8aKWLNrxv-6" value="" style="endArrow=none;html=1;rounded=0;fontSize=14;fontColor=#BCBDD0;strokeColor=#bcbdd0;strokeWidth=3;" parent="1" edge="1">
                    <mxGeometry width="50" height="50" relative="1" as="geometry">
                        <mxPoint x="340" y="828.74" as="sourcePoint"/>
                        <mxPoint x="360" y="808.74" as="targetPoint"/>
                    </mxGeometry>
                </mxCell>
                <mxCell id="Envj31jSL4E8aKWLNrxv-7" value="" style="endArrow=none;html=1;rounded=0;fontSize=14;fontColor=#BCBDD0;strokeColor=#bcbdd0;strokeWidth=3;" parent="1" edge="1">
                    <mxGeometry width="50" height="50" relative="1" as="geometry">
                        <mxPoint x="340" y="868.74" as="sourcePoint"/>
                        <mxPoint x="360" y="848.74" as="targetPoint"/>
                    </mxGeometry>
                </mxCell>
                <mxCell id="Envj31jSL4E8aKWLNrxv-8" value="&lt;i style=&quot;font-size: 14px;&quot;&gt;DUTY&lt;/i&gt;" style="text;html=1;strokeColor=none;fillColor=none;align=center;verticalAlign=middle;whiteSpace=wrap;rounded=0;labelBackgroundColor=none;fontSize=14;fontColor=#BCBDD0;" parent="1" vertex="1">
                    <mxGeometry x="280" y="798.74" width="50" height="40" as="geometry"/>
                </mxCell>
                <mxCell id="Envj31jSL4E8aKWLNrxv-9" value="&lt;i style=&quot;font-size: 14px;&quot;&gt;PHASE&lt;/i&gt;" style="text;html=1;strokeColor=none;fillColor=none;align=center;verticalAlign=middle;whiteSpace=wrap;rounded=0;labelBackgroundColor=none;fontSize=14;fontColor=#BCBDD0;" parent="1" vertex="1">
                    <mxGeometry x="270" y="838.74" width="60" height="40" as="geometry"/>
                </mxCell>
                <mxCell id="CctJdnO_5R8gQSGLH6jG-4" value="CLK" style="text;html=1;strokeColor=none;fillColor=none;align=center;verticalAlign=middle;whiteSpace=wrap;rounded=0;labelBackgroundColor=none;fontSize=14;fontColor=#BCBDD0;fontStyle=2" parent="1" vertex="1">
                    <mxGeometry x="370" y="520" width="60" height="20" as="geometry"/>
                </mxCell>
                <mxCell id="CctJdnO_5R8gQSGLH6jG-5" value="" style="endArrow=classic;html=1;rounded=0;fontSize=14;fontColor=#BCBDD0;strokeColor=#bcbdd0;strokeWidth=3;entryX=0.093;entryY=-0.003;entryDx=0;entryDy=0;exitX=0.5;exitY=1;exitDx=0;exitDy=0;entryPerimeter=0;" parent="1" source="CctJdnO_5R8gQSGLH6jG-4" edge="1">
                    <mxGeometry width="50" height="50" relative="1" as="geometry">
                        <mxPoint x="460" y="810" as="sourcePoint"/>
                        <mxPoint x="399.52" y="568.74" as="targetPoint"/>
                    </mxGeometry>
                </mxCell>
                <mxCell id="3" value="&lt;font style=&quot;font-size: 14px;&quot;&gt;Buffer&lt;br style=&quot;font-size: 14px;&quot;&gt;&lt;/font&gt;" style="rounded=0;whiteSpace=wrap;html=1;fontColor=#BCBDD0;labelBackgroundColor=none;fillColor=none;strokeColor=#bcbdd0;strokeWidth=3;fontSize=14;" parent="1" vertex="1">
                    <mxGeometry x="660" y="798.74" width="120" height="80" as="geometry"/>
                </mxCell>
                <mxCell id="10" value="&lt;font style=&quot;font-size: 14px;&quot;&gt;Silent&lt;br style=&quot;font-size: 14px;&quot;&gt;Filter&lt;br style=&quot;font-size: 14px;&quot;&gt;&lt;/font&gt;" style="rounded=0;whiteSpace=wrap;html=1;fontColor=#BCBDD0;labelBackgroundColor=none;fillColor=none;strokeColor=#bcbdd0;strokeWidth=3;fontSize=14;" parent="1" vertex="1">
                    <mxGeometry x="390" y="798.74" width="120" height="80" as="geometry"/>
                </mxCell>
                <mxCell id="11" value="" style="endArrow=classic;html=1;rounded=0;fontSize=14;fontColor=#BCBDD0;entryX=0;entryY=0.25;entryDx=0;entryDy=0;strokeColor=#bcbdd0;strokeWidth=3;exitX=1;exitY=0.25;exitDx=0;exitDy=0;" parent="1" source="10" target="3" edge="1">
                    <mxGeometry width="50" height="50" relative="1" as="geometry">
                        <mxPoint x="590" y="818.74" as="sourcePoint"/>
                        <mxPoint x="650" y="818.7400000000002" as="targetPoint"/>
                    </mxGeometry>
                </mxCell>
                <mxCell id="12" value="" style="endArrow=classic;html=1;rounded=0;fontSize=14;fontColor=#BCBDD0;entryX=0;entryY=0.5;entryDx=0;entryDy=0;strokeColor=#bcbdd0;strokeWidth=3;exitX=1;exitY=0.5;exitDx=0;exitDy=0;" parent="1" source="10" target="3" edge="1">
                    <mxGeometry width="50" height="50" relative="1" as="geometry">
                        <mxPoint x="590" y="858.7400000000002" as="sourcePoint"/>
                        <mxPoint x="650" y="858.7400000000002" as="targetPoint"/>
                    </mxGeometry>
                </mxCell>
                <mxCell id="14" value="" style="endArrow=none;html=1;rounded=0;fontSize=14;fontColor=#BCBDD0;strokeColor=#bcbdd0;strokeWidth=3;" parent="1" edge="1">
                    <mxGeometry width="50" height="50" relative="1" as="geometry">
                        <mxPoint x="610" y="848.7400000000002" as="sourcePoint"/>
                        <mxPoint x="630" y="828.7400000000002" as="targetPoint"/>
                    </mxGeometry>
                </mxCell>
                <mxCell id="17" value="&lt;i style=&quot;font-size: 14px;&quot;&gt;DUTY_S&lt;/i&gt;" style="text;html=1;strokeColor=none;fillColor=none;align=center;verticalAlign=middle;whiteSpace=wrap;rounded=0;labelBackgroundColor=none;fontSize=14;fontColor=#BCBDD0;" parent="1" vertex="1">
                    <mxGeometry x="515" y="788.74" width="55" height="40" as="geometry"/>
                </mxCell>
                <mxCell id="18" value="&lt;i style=&quot;font-size: 14px;&quot;&gt;PHASE_S&lt;/i&gt;" style="text;html=1;strokeColor=none;fillColor=none;align=center;verticalAlign=middle;whiteSpace=wrap;rounded=0;labelBackgroundColor=none;fontSize=14;fontColor=#BCBDD0;" parent="1" vertex="1">
                    <mxGeometry x="512.5" y="810" width="67.5" height="40" as="geometry"/>
                </mxCell>
                <mxCell id="19" value="&lt;i style=&quot;font-size: 14px;&quot;&gt;SYS_TIME&lt;/i&gt;" style="text;html=1;strokeColor=none;fillColor=none;align=center;verticalAlign=middle;whiteSpace=wrap;rounded=0;labelBackgroundColor=none;fontSize=14;fontColor=#BCBDD0;" parent="1" vertex="1">
                    <mxGeometry x="240" y="600" width="90" height="40" as="geometry"/>
                </mxCell>
                <mxCell id="20" value="" style="endArrow=classic;html=1;rounded=0;fontSize=14;fontColor=#BCBDD0;entryX=0;entryY=0.25;entryDx=0;entryDy=0;strokeColor=#bcbdd0;strokeWidth=3;exitX=1;exitY=0.5;exitDx=0;exitDy=0;" parent="1" source="19" target="36" edge="1">
                    <mxGeometry width="50" height="50" relative="1" as="geometry">
                        <mxPoint x="340" y="828.74" as="sourcePoint"/>
                        <mxPoint x="400" y="828.74" as="targetPoint"/>
                    </mxGeometry>
                </mxCell>
                <mxCell id="21" value="&lt;i style=&quot;font-size: 14px;&quot;&gt;CYCLE_S&lt;/i&gt;" style="text;html=1;strokeColor=none;fillColor=none;align=center;verticalAlign=middle;whiteSpace=wrap;rounded=0;labelBackgroundColor=none;fontSize=14;fontColor=#BCBDD0;" parent="1" vertex="1">
                    <mxGeometry x="250" y="640" width="80" height="40" as="geometry"/>
                </mxCell>
                <mxCell id="22" value="&lt;i style=&quot;font-size: 14px;&quot;&gt;STEP&lt;/i&gt;" style="text;html=1;strokeColor=none;fillColor=none;align=center;verticalAlign=middle;whiteSpace=wrap;rounded=0;labelBackgroundColor=none;fontSize=14;fontColor=#BCBDD0;" parent="1" vertex="1">
                    <mxGeometry x="280" y="728.74" width="50" height="40" as="geometry"/>
                </mxCell>
                <mxCell id="23" value="" style="endArrow=classic;html=1;rounded=0;fontSize=14;fontColor=#BCBDD0;entryX=0;entryY=0.75;entryDx=0;entryDy=0;strokeColor=#bcbdd0;strokeWidth=3;exitX=1;exitY=0.5;exitDx=0;exitDy=0;" parent="1" source="21" target="36" edge="1">
                    <mxGeometry width="50" height="50" relative="1" as="geometry">
                        <mxPoint x="340" y="698.74" as="sourcePoint"/>
                        <mxPoint x="490" y="808.74" as="targetPoint"/>
                    </mxGeometry>
                </mxCell>
                <mxCell id="24" value="" style="endArrow=classic;html=1;rounded=0;fontSize=14;fontColor=#BCBDD0;entryX=0.204;entryY=-0.002;entryDx=0;entryDy=0;strokeColor=#bcbdd0;strokeWidth=3;exitX=1;exitY=0.5;exitDx=0;exitDy=0;entryPerimeter=0;" parent="1" source="22" target="10" edge="1">
                    <mxGeometry width="50" height="50" relative="1" as="geometry">
                        <mxPoint x="340" y="728.74" as="sourcePoint"/>
                        <mxPoint x="460" y="808.74" as="targetPoint"/>
                        <Array as="points">
                            <mxPoint x="414" y="749"/>
                        </Array>
                    </mxGeometry>
                </mxCell>
                <mxCell id="25" value="" style="endArrow=none;html=1;rounded=0;fontSize=14;fontColor=#BCBDD0;strokeColor=#bcbdd0;strokeWidth=3;" parent="1" edge="1">
                    <mxGeometry width="50" height="50" relative="1" as="geometry">
                        <mxPoint x="610" y="828.7400000000002" as="sourcePoint"/>
                        <mxPoint x="630" y="808.74" as="targetPoint"/>
                    </mxGeometry>
                </mxCell>
                <mxCell id="26" value="" style="endArrow=classic;html=1;rounded=0;fontSize=14;fontColor=#BCBDD0;entryX=0;entryY=0.5;entryDx=0;entryDy=0;strokeColor=#bcbdd0;strokeWidth=3;exitX=1;exitY=0.25;exitDx=0;exitDy=0;" parent="1" source="3" target="29" edge="1">
                    <mxGeometry width="50" height="50" relative="1" as="geometry">
                        <mxPoint x="780" y="818.74" as="sourcePoint"/>
                        <mxPoint x="930" y="818.74" as="targetPoint"/>
                    </mxGeometry>
                </mxCell>
                <mxCell id="27" value="" style="endArrow=classic;html=1;rounded=0;fontSize=14;fontColor=#BCBDD0;entryX=0;entryY=0.5;entryDx=0;entryDy=0;strokeColor=#bcbdd0;strokeWidth=3;exitX=1;exitY=0.75;exitDx=0;exitDy=0;" parent="1" source="3" target="30" edge="1">
                    <mxGeometry width="50" height="50" relative="1" as="geometry">
                        <mxPoint x="780" y="858.74" as="sourcePoint"/>
                        <mxPoint x="930" y="858.74" as="targetPoint"/>
                    </mxGeometry>
                </mxCell>
                <mxCell id="28" value="" style="endArrow=none;html=1;rounded=0;fontSize=14;fontColor=#BCBDD0;strokeColor=#bcbdd0;strokeWidth=3;" parent="1" edge="1">
                    <mxGeometry width="50" height="50" relative="1" as="geometry">
                        <mxPoint x="827" y="868.7400000000002" as="sourcePoint"/>
                        <mxPoint x="847" y="848.7400000000002" as="targetPoint"/>
                    </mxGeometry>
                </mxCell>
                <mxCell id="29" value="&lt;i style=&quot;font-size: 14px;&quot;&gt;DUTY_S&lt;/i&gt;" style="text;html=1;strokeColor=none;fillColor=none;align=center;verticalAlign=middle;whiteSpace=wrap;rounded=0;labelBackgroundColor=none;fontSize=14;fontColor=#BCBDD0;" parent="1" vertex="1">
                    <mxGeometry x="880" y="798.74" width="60" height="40" as="geometry"/>
                </mxCell>
                <mxCell id="30" value="&lt;i style=&quot;font-size: 14px;&quot;&gt;PHASE_S&lt;/i&gt;" style="text;html=1;strokeColor=none;fillColor=none;align=center;verticalAlign=middle;whiteSpace=wrap;rounded=0;labelBackgroundColor=none;fontSize=14;fontColor=#BCBDD0;" parent="1" vertex="1">
                    <mxGeometry x="880" y="838.74" width="70" height="40" as="geometry"/>
                </mxCell>
                <mxCell id="31" value="" style="endArrow=none;html=1;rounded=0;fontSize=14;fontColor=#BCBDD0;strokeColor=#bcbdd0;strokeWidth=3;" parent="1" edge="1">
                    <mxGeometry width="50" height="50" relative="1" as="geometry">
                        <mxPoint x="830" y="828.7400000000002" as="sourcePoint"/>
                        <mxPoint x="850" y="808.74" as="targetPoint"/>
                        <Array as="points">
                            <mxPoint x="840" y="818.74"/>
                        </Array>
                    </mxGeometry>
                </mxCell>
                <mxCell id="36" value="&lt;font style=&quot;font-size: 14px;&quot;&gt;Timer&lt;/font&gt;" style="rounded=0;whiteSpace=wrap;html=1;fontColor=#BCBDD0;labelBackgroundColor=none;fillColor=none;strokeColor=#bcbdd0;strokeWidth=3;fontSize=14;" parent="1" vertex="1">
                    <mxGeometry x="390" y="600" width="120" height="80" as="geometry"/>
                </mxCell>
                <mxCell id="38" value="" style="endArrow=classic;html=1;rounded=0;fontSize=14;fontColor=#BCBDD0;entryX=0.804;entryY=-0.002;entryDx=0;entryDy=0;strokeColor=#bcbdd0;strokeWidth=3;exitX=0.804;exitY=1.004;exitDx=0;exitDy=0;entryPerimeter=0;exitPerimeter=0;" parent="1" source="36" target="10" edge="1">
                    <mxGeometry width="50" height="50" relative="1" as="geometry">
                        <mxPoint x="340" y="658.74" as="sourcePoint"/>
                        <mxPoint x="400" y="658.74" as="targetPoint"/>
                    </mxGeometry>
                </mxCell>
                <mxCell id="42" value="UPDATE" style="text;html=1;strokeColor=none;fillColor=none;align=center;verticalAlign=middle;whiteSpace=wrap;rounded=0;labelBackgroundColor=none;fontSize=14;fontColor=#BCBDD0;fontStyle=2" parent="1" vertex="1">
                    <mxGeometry x="490" y="718.74" width="60" height="20" as="geometry"/>
                </mxCell>
                <mxCell id="43" value="&lt;i style=&quot;font-size: 14px;&quot;&gt;CYCLE&lt;/i&gt;" style="text;html=1;strokeColor=none;fillColor=none;align=center;verticalAlign=middle;whiteSpace=wrap;rounded=0;labelBackgroundColor=none;fontSize=14;fontColor=#BCBDD0;" parent="1" vertex="1">
                    <mxGeometry x="270" y="708.74" width="60" height="40" as="geometry"/>
                </mxCell>
                <mxCell id="44" value="" style="endArrow=classic;html=1;rounded=0;fontSize=14;fontColor=#BCBDD0;entryX=0.399;entryY=-0.002;entryDx=0;entryDy=0;strokeColor=#bcbdd0;strokeWidth=3;exitX=1;exitY=0.5;exitDx=0;exitDy=0;entryPerimeter=0;" parent="1" source="43" target="10" edge="1">
                    <mxGeometry width="50" height="50" relative="1" as="geometry">
                        <mxPoint x="340" y="758.74" as="sourcePoint"/>
                        <mxPoint x="430" y="808.74" as="targetPoint"/>
                        <Array as="points">
                            <mxPoint x="438" y="729"/>
                        </Array>
                    </mxGeometry>
                </mxCell>
                <mxCell id="45" value="" style="endArrow=none;html=1;rounded=0;fontSize=14;fontColor=#BCBDD0;strokeColor=#bcbdd0;strokeWidth=3;" parent="1" edge="1">
                    <mxGeometry width="50" height="50" relative="1" as="geometry">
                        <mxPoint x="340" y="738.74" as="sourcePoint"/>
                        <mxPoint x="360" y="718.74" as="targetPoint"/>
                    </mxGeometry>
                </mxCell>
                <mxCell id="46" value="" style="endArrow=classic;html=1;rounded=0;fontSize=14;fontColor=#BCBDD0;entryX=0;entryY=0.75;entryDx=0;entryDy=0;strokeColor=#bcbdd0;strokeWidth=3;exitX=1;exitY=0.75;exitDx=0;exitDy=0;" parent="1" source="10" target="3" edge="1">
                    <mxGeometry width="50" height="50" relative="1" as="geometry">
                        <mxPoint x="510" y="930" as="sourcePoint"/>
                        <mxPoint x="660" y="930" as="targetPoint"/>
                    </mxGeometry>
                </mxCell>
                <mxCell id="47" value="&lt;i style=&quot;font-size: 14px;&quot;&gt;DONE&lt;/i&gt;" style="text;html=1;strokeColor=none;fillColor=none;align=center;verticalAlign=middle;whiteSpace=wrap;rounded=0;labelBackgroundColor=none;fontSize=14;fontColor=#BCBDD0;" parent="1" vertex="1">
                    <mxGeometry x="510" y="828.74" width="50" height="40" as="geometry"/>
                </mxCell>
                <mxCell id="51" value="" style="endArrow=classic;html=1;rounded=0;fontSize=14;fontColor=#BCBDD0;strokeColor=#bcbdd0;strokeWidth=3;exitX=0;exitY=0.75;exitDx=0;exitDy=0;" parent="1" source="47" edge="1">
                    <mxGeometry width="50" height="50" relative="1" as="geometry">
                        <mxPoint x="520" y="868.74" as="sourcePoint"/>
                        <mxPoint x="880" y="920" as="targetPoint"/>
                        <Array as="points">
                            <mxPoint x="560" y="859"/>
                            <mxPoint x="560" y="920"/>
                        </Array>
                    </mxGeometry>
                </mxCell>
                <mxCell id="52" value="&lt;i style=&quot;font-size: 14px;&quot;&gt;DONE&lt;/i&gt;" style="text;html=1;strokeColor=none;fillColor=none;align=center;verticalAlign=middle;whiteSpace=wrap;rounded=0;labelBackgroundColor=none;fontSize=14;fontColor=#BCBDD0;" parent="1" vertex="1">
                    <mxGeometry x="880" y="900" width="50" height="40" as="geometry"/>
                </mxCell>
            </root>
        </mxGraphModel>
    </diagram>
</mxfile>